HIERARCHY
ROOT Hips
{
    OFFSET   0.000000   0.000000   0.000000
    CHANNELS 6 Xposition Yposition Zposition Zrotation Xrotation Yrotation
    JOINT Chest
    {
        OFFSET   0.000000   8.007230   0.000000
        CHANNELS 3 Zrotation Xrotation Yrotation
        JOINT Chest2
        {
            OFFSET   0.000000  22.077100   0.000000
            CHANNELS 3 Zrotation Xrotation Yrotation
            JOINT Neck
            {
                OFFSET   0.000000  23.254700   0.000000
                CHANNELS 3 Zrotation Xrotation Yrotation
                JOINT Head
                {
                    OFFSET   0.000010  14.370000   1.956610
                    CHANNELS 3 Zrotation Xrotation Yrotation
                    End Site
                    {
                        OFFSET   0.000000  19.566000   0.000000
                    }
                }
            }
            JOINT LeftCollar
            {
                OFFSET   3.911900  19.017000  -0.467063
                CHANNELS 3 Zrotation Xrotation Yrotation
                JOINT LeftShoulder
                {
                    OFFSET  10.383700   0.000000   0.000000
                    CHANNELS 3 Zrotation Xrotation Yrotation
                    JOINT LeftElbow
                    {
                        OFFSET  26.662100   0.001671   0.000522
                        CHANNELS 3 Zrotation Xrotation Yrotation
                        JOINT LeftWrist
                        {
                            OFFSET  28.869000   0.000037  -0.000114
                            CHANNELS 3 Zrotation Xrotation Yrotation
                            JOINT LeftFinger0
                            {
                                OFFSET   2.044650  -2.323450   3.252850
                                CHANNELS 3 Zrotation Xrotation Yrotation
                                JOINT LeftFinger01
                                {
                                    OFFSET   3.088140   0.000000   0.000000
                                    CHANNELS 3 Zrotation Xrotation Yrotation
                                    JOINT LeftFinger02
                                    {
                                        OFFSET   2.639460   0.000000   0.000000
                                        CHANNELS 3 Zrotation Xrotation Yrotation
                                        End Site
                                        {
                                            OFFSET   2.582190   0.000000   0.000000
                                        }
                                    }
                                }
                            }
                            JOINT LeftFinger1
                            {
                                OFFSET   8.364480   0.000000   3.252850
                                CHANNELS 3 Zrotation Xrotation Yrotation
                                JOINT LeftFinger11
                                {
                                    OFFSET   4.646930   0.000000   0.000000
                                    CHANNELS 3 Zrotation Xrotation Yrotation
                                    JOINT LeftFinger12
                                    {
                                        OFFSET   2.323470   0.000000   0.000000
                                        CHANNELS 3 Zrotation Xrotation Yrotation
                                        End Site
                                        {
                                            OFFSET   2.273050   0.000000   0.000000
                                        }
                                    }
                                }
                            }
                            JOINT LeftFinger2
                            {
                                OFFSET   8.364490   0.000016   1.078090
                                CHANNELS 3 Zrotation Xrotation Yrotation
                                JOINT LeftFinger21
                                {
                                    OFFSET   5.111620   0.000000   0.000000
                                    CHANNELS 3 Zrotation Xrotation Yrotation
                                    JOINT LeftFinger22
                                    {
                                        OFFSET   2.788150   0.000013   0.000000
                                        CHANNELS 3 Zrotation Xrotation Yrotation
                                        End Site
                                        {
                                            OFFSET   2.727660   0.000000   0.000000
                                        }
                                    }
                                }
                            }
                            JOINT LeftFinger3
                            {
                                OFFSET   7.899780   0.000016  -1.078090
                                CHANNELS 3 Zrotation Xrotation Yrotation
                                JOINT LeftFinger31
                                {
                                    OFFSET   4.646930   0.000000   0.000000
                                    CHANNELS 3 Zrotation Xrotation Yrotation
                                    JOINT LeftFinger32
                                    {
                                        OFFSET   2.323470   0.000000   0.000000
                                        CHANNELS 3 Zrotation Xrotation Yrotation
                                        End Site
                                        {
                                            OFFSET   2.273050   0.000000   0.000000
                                        }
                                    }
                                }
                            }
                            JOINT LeftFinger4
                            {
                                OFFSET   7.435080   0.000000  -3.252850
                                CHANNELS 3 Zrotation Xrotation Yrotation
                                JOINT LeftFinger41
                                {
                                    OFFSET   3.717550   0.000000   0.000000
                                    CHANNELS 3 Zrotation Xrotation Yrotation
                                    JOINT LeftFinger42
                                    {
                                        OFFSET   1.858760   0.000000   0.000000
                                        CHANNELS 3 Zrotation Xrotation Yrotation
                                        End Site
                                        {
                                            OFFSET   1.818440   0.000000   0.000000
                                        }
                                    }
                                }
                            }
                        }
                    }
                }
            }
            JOINT RightCollar
            {
                OFFSET  -3.911900  19.017000  -0.467064
                CHANNELS 3 Zrotation Xrotation Yrotation
                JOINT RightShoulder
                {
                    OFFSET -10.383700   0.000000   0.000000
                    CHANNELS 3 Zrotation Xrotation Yrotation
                    JOINT RightElbow
                    {
                        OFFSET -26.662100   0.001633   0.000260
                        CHANNELS 3 Zrotation Xrotation Yrotation
                        JOINT RightWrist
                        {
                            OFFSET -28.869000  -0.000045  -0.000080
                            CHANNELS 3 Zrotation Xrotation Yrotation
                            JOINT RightFinger0
                            {
                                OFFSET  -2.044660  -2.323490   3.252850
                                CHANNELS 3 Zrotation Xrotation Yrotation
                                JOINT RightFinger01
                                {
                                    OFFSET  -3.088140   0.000000   0.000000
                                    CHANNELS 3 Zrotation Xrotation Yrotation
                                    JOINT RightFinger02
                                    {
                                        OFFSET  -2.639450   0.000000   0.000000
                                        CHANNELS 3 Zrotation Xrotation Yrotation
                                        End Site
                                        {
                                            OFFSET  -2.582190   0.000000   0.000000
                                        }
                                    }
                                }
                            }
                            JOINT RightFinger1
                            {
                                OFFSET  -8.364480   0.000000   3.252850
                                CHANNELS 3 Zrotation Xrotation Yrotation
                                JOINT RightFinger11
                                {
                                    OFFSET  -4.646920   0.000000   0.000000
                                    CHANNELS 3 Zrotation Xrotation Yrotation
                                    JOINT RightFinger12
                                    {
                                        OFFSET  -2.323470   0.000000   0.000000
                                        CHANNELS 3 Zrotation Xrotation Yrotation
                                        End Site
                                        {
                                            OFFSET  -2.273050   0.000000   0.000000
                                        }
                                    }
                                }
                            }
                            JOINT RightFinger2
                            {
                                OFFSET  -8.364480   0.000000   1.078090
                                CHANNELS 3 Zrotation Xrotation Yrotation
                                JOINT RightFinger21
                                {
                                    OFFSET  -5.111610   0.000000   0.000000
                                    CHANNELS 3 Zrotation Xrotation Yrotation
                                    JOINT RightFinger22
                                    {
                                        OFFSET  -2.788160   0.000000   0.000000
                                        CHANNELS 3 Zrotation Xrotation Yrotation
                                        End Site
                                        {
                                            OFFSET  -2.727660   0.000000   0.000000
                                        }
                                    }
                                }
                            }
                            JOINT RightFinger3
                            {
                                OFFSET  -7.899780   0.000000  -1.078090
                                CHANNELS 3 Zrotation Xrotation Yrotation
                                JOINT RightFinger31
                                {
                                    OFFSET  -4.646930   0.000000   0.000000
                                    CHANNELS 3 Zrotation Xrotation Yrotation
                                    JOINT RightFinger32
                                    {
                                        OFFSET  -2.323470   0.000000   0.000000
                                        CHANNELS 3 Zrotation Xrotation Yrotation
                                        End Site
                                        {
                                            OFFSET  -2.273050   0.000000   0.000000
                                        }
                                    }
                                }
                            }
                            JOINT RightFinger4
                            {
                                OFFSET  -7.435090   0.000000  -3.252850
                                CHANNELS 3 Zrotation Xrotation Yrotation
                                JOINT RightFinger41
                                {
                                    OFFSET  -3.717550   0.000000   0.000000
                                    CHANNELS 3 Zrotation Xrotation Yrotation
                                    JOINT RightFinger42
                                    {
                                        OFFSET  -1.858760   0.000000   0.000000
                                        CHANNELS 3 Zrotation Xrotation Yrotation
                                        End Site
                                        {
                                            OFFSET  -1.818440   0.000000   0.000000
                                        }
                                    }
                                }
                            }
                        }
                    }
                }
            }
        }
    }
    JOINT LeftHip
    {
        OFFSET   9.782990   0.000000   0.000000
        CHANNELS 3 Zrotation Xrotation Yrotation
        JOINT LeftKnee
        {
            OFFSET  -0.000063 -41.789100   0.001657
            CHANNELS 3 Zrotation Xrotation Yrotation
            JOINT LeftAnkle
            {
                OFFSET   0.000078 -41.133200  -0.000113
                CHANNELS 3 Zrotation Xrotation Yrotation
                JOINT LeftToe
                {
                    OFFSET   0.000000  -6.358970  14.674500
                    CHANNELS 3 Zrotation Xrotation Yrotation
                    End Site
                    {
                        OFFSET   0.000000   0.000000   3.913200
                    }
                }
            }
        }
    }
    JOINT RightHip
    {
        OFFSET  -9.782990   0.000000   0.000000
        CHANNELS 3 Zrotation Xrotation Yrotation
        JOINT RightKnee
        {
            OFFSET   0.000053 -41.789200   0.000277
            CHANNELS 3 Zrotation Xrotation Yrotation
            JOINT RightAnkle
            {
                OFFSET   0.000030 -41.133200  -0.000150
                CHANNELS 3 Zrotation Xrotation Yrotation
                JOINT RightToe
                {
                    OFFSET   0.000000  -6.358960  14.674500
                    CHANNELS 3 Zrotation Xrotation Yrotation
                    End Site
                    {
                        OFFSET   0.000000   0.000000   3.913200
                    }
                }
            }
        }
    }
}
MOTION
Frames: 4
Frame Time:   0.016667
 -3.489890  89.609100  -2.697560  -8.152810 -13.780700 -18.879400   2.262890   9.709690  -0.967850   4.800130  19.370800  -2.382860   3.229800  -0.134392   0.008953   5.308690  -0.269998  13.449600  -4.612290  -1.215060   3.180000 -69.636900  24.340500 -11.859900  -1.716270  -3.231620 -18.947600  10.819600  -3.660280   3.457910  42.048800  38.460800 -69.715900 -32.142800   0.000000   0.000103 -11.071400   0.003212  -0.000000 -30.535700   5.478690  -9.195570 -25.343800   0.000149   0.005204 -17.740700  -0.002224   0.000813 -28.204700  -1.688290   3.144340 -33.813400   0.002796  -0.000248 -22.519800  -0.003913   0.001094 -27.809000  -1.666550   3.155910 -31.107900   0.001041  -0.000215 -20.717900   0.001247   0.003836 -28.673100  -1.714380   3.130300 -43.079900   0.000771  -0.000331 -28.691200   0.000533   0.000884  10.483700   2.132110   9.202940  66.863700 -37.622300  20.402900 -33.442800 -48.826300  72.773700  94.097600 -48.478600  99.022400 -58.404000  40.817600  79.265500 -21.847000  -0.002698  -0.004463 -15.000000   0.009145  -0.000221  88.996100   4.999160   0.089174  75.061000  -0.000543  -0.000610  56.295700  -0.001750  -0.000762  89.000000  -0.003228   0.013657  92.416500  -0.003902  -0.000157  69.312400  -0.000551   0.000079  88.995700  -5.008440  -0.092995  93.949800  -0.004896  -0.000882  70.462400   0.002721   0.000144  88.984700  -9.996530  -0.176298 110.000000  -0.006626  -0.007078  79.998700  -0.007428   0.006830   5.724750  18.327500   7.378100   1.423800   0.851945  12.215500  -3.354000  -2.945190   3.499160  -0.000000   0.000000   0.000000   6.752710  13.784200   2.546620  -1.313740   3.946180  -5.459130   4.132610  -5.347910  10.123300  -0.000000   0.000000  -0.000000
 -3.497070  89.609700  -2.710210  -8.113480 -13.743800 -18.817200   2.239170   9.694210  -0.947364   4.747340  19.341300  -2.335930   3.230170  -0.119686   0.009292   5.306710  -0.240248  13.422300  -4.601920  -1.249700   3.182100 -69.657700  24.263400 -11.790200  -1.648770  -3.181320 -19.034900  10.868500  -3.775460   3.464670  42.039400  38.467100 -69.730500 -32.162400   0.000000   0.000093 -11.081200   0.003176  -0.000000 -30.565700   5.474020  -9.175360 -25.368000   0.000365   0.005295 -17.757600  -0.002282   0.001108 -28.209600  -1.700970   3.167330 -33.853200   0.002720  -0.000149 -22.546200  -0.003876   0.001037 -27.815900  -1.679160   3.178950 -31.146800   0.001011  -0.000252 -20.743800   0.001235   0.003784 -28.710000  -1.728610   3.152390 -43.136400   0.000853  -0.000260 -28.728900   0.000580   0.000835  10.436200   2.161060   9.139260  67.865000 -38.342400  21.202700 -33.300000 -49.187000  72.559400  95.399400 -48.721500 100.209000 -58.375500  40.826200  79.300300 -21.830100  -0.002692  -0.004463 -15.000000   0.009252  -0.000358  88.996100   4.999050   0.089186  74.771500  -0.000357  -0.000527  56.078600  -0.001129  -0.000943  89.000000  -0.003372   0.013862  91.858200  -0.003685  -0.000144  68.893700  -0.000469  -0.000000  88.995700  -5.008480  -0.093033  93.502900  -0.004623  -0.000738  70.127200   0.002739   0.000000  88.984700  -9.996530  -0.176300 110.000000  -0.006705  -0.007167  79.998700  -0.007432   0.006795   5.722480  18.281100   7.380030   1.429890   0.827640  12.198700  -3.367660  -2.921860   3.463100  -0.000000   0.000000  -0.000000   6.731100  13.755200   2.542010  -1.293070   3.897930  -5.479510   4.150200  -5.348690  10.099900   0.000000   0.000000  -0.000000
 -3.502340  89.610200  -2.721970  -8.066460 -13.715700 -18.726200   2.213170   9.684680  -0.927427   4.690420  19.323700  -2.290570   3.222160  -0.115074   0.009650   5.292650  -0.230865  13.384900  -4.592950  -1.291870   3.181570 -69.654500  24.211800 -11.743200  -1.592790  -3.175580 -19.121200  10.907200  -3.890230   3.475580  42.008100  38.413900 -69.633900 -32.168500   0.000000   0.000042 -11.084300   0.003135   0.000000 -30.571700   5.461380  -9.150950 -25.371000   0.000587   0.005389 -17.759700  -0.002344   0.001406 -28.209600  -1.715060   3.193580 -33.849600   0.002641  -0.000154 -22.543800  -0.003834   0.000983 -27.816500  -1.693100   3.205280 -31.146300   0.000984  -0.000253 -20.743500   0.001226   0.003732 -28.721900  -1.743560   3.178050 -43.155600   0.000853  -0.000261 -28.741600   0.000581   0.000774  10.395200   2.181940   9.064320  68.815600 -39.047700  21.925800 -33.294000 -49.477800  72.234800  96.444100 -48.911500 101.172000 -58.103500  40.705900  79.099600 -21.792200  -0.002682  -0.004459 -15.000000   0.009356  -0.000498  88.996000   4.998940   0.089195  74.532900  -0.000181   0.000023  55.899700   0.000188  -0.001131  89.000000  -0.003517   0.014066  91.393800  -0.003134  -0.000040  68.545400  -0.000376  -0.000128  88.995700  -5.008530  -0.093063  93.124300  -0.004008  -0.000502  69.843200   0.002758  -0.000198  88.984700  -9.996530  -0.176298 110.000000  -0.006789  -0.007253  79.998700  -0.007439   0.006758   5.720120  18.248400   7.380340   1.431870   0.772360  12.170100  -3.381770  -2.879640   3.414180  -0.000000   0.000000   0.000000   6.707060  13.735400   2.554770  -1.264890   3.841800  -5.539540   4.145920  -5.337840  10.063800  -0.000000   0.000000  -0.000000
 -3.504490  89.610700  -2.731870  -8.015760 -13.692800 -18.613600   2.188500   9.675960  -0.912674   4.636890  19.307500  -2.255040   3.200640  -0.114415   0.010007   5.258450  -0.229542  13.360500  -4.587620  -1.329030   3.181050 -69.641000  24.173900 -11.711100  -1.534870  -3.173450 -19.201600  10.935500  -3.972460   3.489470  41.976800  38.361000 -69.537200 -32.171700   0.000000  -0.000000 -11.085900   0.003098  -0.000000 -30.576300   5.452200  -9.135750 -25.373600   0.000809   0.005485 -17.761500  -0.002405   0.001702 -28.209200  -1.723610   3.209680 -33.846000   0.002563  -0.000159 -22.541400  -0.003794   0.000928 -27.816500  -1.701540   3.221450 -31.145800   0.000958  -0.000254 -20.743100   0.001218   0.003685 -28.727700  -1.752730   3.193940 -43.164900   0.000853  -0.000263 -28.747800   0.000581   0.000717  10.356100   2.206610   8.989610  69.686600 -39.727000  22.561700 -33.357900 -49.665700  71.847300  97.312600 -49.050800 101.969000 -57.666700  40.484400  78.702700 -21.765200  -0.002671  -0.004447 -15.000000   0.009457  -0.000634  88.996000   4.998830   0.089200  74.317600   0.000000   0.001017  55.738200   0.001764  -0.001312  89.000000  -0.003661   0.014264  90.983600  -0.002345   0.000188  68.237700  -0.000278  -0.000280  88.995700  -5.008580  -0.093088  92.769300  -0.003173  -0.000191  69.576900   0.002779  -0.000421  88.984700  -9.996530  -0.176295 110.000000  -0.006869  -0.007335  79.998700  -0.007442   0.006717   5.719320  18.220100   7.382660   1.429660   0.705784  12.129500  -3.396560  -2.828980   3.353200   0.000000   0.000000  -0.000000   6.683710  13.717200   2.575150  -1.236700   3.790670  -5.615910   4.140820  -5.327130  10.018700   0.000000   0.000000  -0.000000
